<svg id="Layer_1" data-name="Layer 1" xmlns="http://www.w3.org/2000/svg" viewBox="0 0 2560 1440"><defs><style>.cls-1{fill:#3e4159;}.cls-2{fill:#14151e;}.cls-3{fill:#252735;}</style></defs><title>forside4</title><polygon class="cls-1" points="1101.81 571.96 1170.91 343.53 617.4 176.09 388.97 107 319.87 335.43 257.69 541.02 188.59 769.45 126.4 975.04 57.3 1203.47 285.73 1272.57 839.24 1440 908.34 1211.57 354.83 1044.14 417.02 838.55 808.87 957.08 877.97 728.65 486.12 610.12 548.31 404.53 1101.81 571.96"/><polygon class="cls-2" points="1044.52 464.96 1113.62 236.53 560.11 69.1 331.68 0 262.58 228.43 200.39 434.02 131.29 662.45 69.1 868.04 0 1096.47 228.43 1165.57 781.94 1333.01 851.04 1104.57 297.53 937.14 359.72 731.55 751.57 850.08 820.67 621.65 428.82 503.12 491.01 297.53 1044.52 464.96"/><polygon class="cls-1" points="1170.91 343.53 1113.62 236.53 1088.77 318.68 1170.91 343.53"/><polygon class="cls-1" points="877.97 728.65 820.67 621.65 795.82 703.8 877.97 728.65"/><polygon class="cls-1" points="908.32 1211.64 851.02 1104.65 826.17 1186.79 908.32 1211.64"/><polygon class="cls-1" points="57.3 1203.47 0 1096.47 82.15 1121.32 57.3 1203.47"/><polygon class="cls-3" points="1101.81 571.96 1044.52 464.96 491.01 297.53 548.31 404.53 1101.81 571.96"/><polygon class="cls-3" points="839.24 1440 781.94 1333.01 0 1096.47 57.3 1203.47 839.24 1440"/><polygon class="cls-3" points="808.87 957.08 751.57 850.08 359.72 731.55 417.02 838.55 808.87 957.08"/><polygon class="cls-1" points="1458.19 571.96 1389.09 343.53 1942.6 176.09 2171.03 107 2240.13 335.43 2302.32 541.02 2371.41 769.45 2433.6 975.04 2502.7 1203.47 2274.27 1272.57 1720.76 1440 1651.66 1211.57 2205.17 1044.14 2142.98 838.55 1751.13 957.08 1682.03 728.65 2073.88 610.12 2011.69 404.53 1458.19 571.96"/><polygon class="cls-2" points="1515.48 464.96 1446.38 236.53 1999.89 69.1 2228.32 0 2297.42 228.43 2359.61 434.02 2428.71 662.45 2490.9 868.04 2560 1096.47 2331.57 1165.57 1778.06 1333.01 1708.96 1104.57 2262.47 937.14 2200.28 731.55 1808.43 850.08 1739.33 621.65 2131.18 503.12 2068.99 297.53 1515.48 464.96"/><polygon class="cls-1" points="1389.09 343.53 1446.38 236.53 1471.23 318.68 1389.09 343.53"/><polygon class="cls-1" points="1682.03 728.65 1739.33 621.65 1764.18 703.8 1682.03 728.65"/><polygon class="cls-1" points="1651.68 1211.64 1708.98 1104.65 1733.83 1186.79 1651.68 1211.64"/><polygon class="cls-1" points="2502.7 1203.47 2560 1096.47 2477.85 1121.32 2502.7 1203.47"/><polygon class="cls-3" points="1458.19 571.96 1515.48 464.96 2068.99 297.53 2011.69 404.53 1458.19 571.96"/><polygon class="cls-3" points="1720.76 1440 1778.06 1333.01 2560 1096.47 2502.7 1203.47 1720.76 1440"/><polygon class="cls-3" points="1751.13 957.08 1808.43 850.08 2200.28 731.55 2142.98 838.55 1751.13 957.08"/></svg>
