<svg id="Layer_1" data-name="Layer 1" xmlns="http://www.w3.org/2000/svg" viewBox="0 0 2560 1440"><defs><style>.cls-1{fill:#252735;}.cls-2{fill:#3e4159;}.cls-3{fill:#14151e;}</style></defs><title>forside2</title><rect class="cls-1" width="2560" height="1440"/><polygon class="cls-2" points="1190.83 618.16 1265.51 371.28 667.28 190.32 420.4 115.64 345.71 362.52 278.5 584.72 203.82 831.61 136.61 1053.81 61.93 1300.69 308.81 1375.38 907.04 1556.33 981.72 1309.45 383.49 1128.49 450.71 906.29 874.21 1034.4 948.89 787.51 525.39 659.4 592.6 437.21 1190.83 618.16"/><polygon class="cls-3" points="1128.9 502.53 1203.58 255.64 605.36 74.68 358.47 0 283.79 246.89 216.57 469.08 141.89 715.97 74.68 938.17 0 1185.06 246.89 1259.74 845.11 1440.69 919.79 1193.81 321.57 1012.85 388.78 790.65 812.29 918.76 886.97 671.87 463.46 543.76 530.67 321.57 1128.9 502.53"/><polygon class="cls-2" points="1265.51 371.28 1203.58 255.64 1176.72 344.42 1265.51 371.28"/><polygon class="cls-2" points="948.89 787.51 886.97 671.87 860.11 760.65 948.89 787.51"/><polygon class="cls-2" points="981.7 1309.53 919.77 1193.89 892.91 1282.67 981.7 1309.53"/><polygon class="cls-2" points="61.93 1300.69 0 1185.06 88.78 1211.91 61.93 1300.69"/><polygon class="cls-1" points="1190.83 618.16 1128.9 502.53 530.67 321.57 592.6 437.21 1190.83 618.16"/><polygon class="cls-1" points="907.04 1556.33 845.11 1440.69 0 1185.06 61.93 1300.69 907.04 1556.33"/><polygon class="cls-1" points="874.21 1034.4 812.29 918.76 388.78 790.65 450.71 906.29 874.21 1034.4"/></svg>
