<svg id="Layer_1" data-name="Layer 1" xmlns="http://www.w3.org/2000/svg" viewBox="0 0 500 500"><defs><style>.cls-1{fill:#060b17;}.cls-2{fill:#4b5072;}</style></defs><title>animation_menu</title><rect class="cls-1" width="500" height="500"/><path class="cls-2" d="M88.35,279.33H76.79L72,265H48.93l-4.7,14.29H35l19.91-60H68.22ZM69.1,256.39l-8.74-26.77-8.75,26.77Z"/><path class="cls-2" d="M139.42,279.33h-10.5L106.16,241l-1.72-2.86c-.35-.59-.89-1.51-1.62-2.77v43.95h-8.7v-60h11.95l21,35.33c.17.3,1.45,2.45,3.82,6.46V219.34h8.52Z"/><path class="cls-2" d="M162,279.33H151.17v-60H162Z"/><path class="cls-2" d="M232.57,279.33h-11V226.81l-16.62,52.52h-5.67l-16.69-52.52v52.52h-8.84v-60h16.92L203.21,258l12.35-38.63h17Z"/><path class="cls-2" d="M291.42,279.33H279.86L275.07,265H252l-4.7,14.29h-9.23l19.91-60h13.31Zm-19.25-22.94-8.74-26.77-8.75,26.77Z"/><path class="cls-2" d="M313.27,279.33h-11.6V228.61h-16v-9.27h43.51v9.27h-16Z"/><path class="cls-2" d="M345.18,279.33H334.37v-60h10.81Z"/><path class="cls-2" d="M379,280.25q-12,0-18.61-9t-6.66-22.14q0-13.09,7.08-21.91a22.77,22.77,0,0,1,18.67-8.81q11.7,0,18.48,8.81t6.79,22q0,13.89-7,22.43T379,280.25Zm.09-8.7a12.42,12.42,0,0,0,9.89-4.84q4-4.83,4-17.53,0-10.34-3.34-16.19a11.1,11.1,0,0,0-10.37-5.87q-13.89,0-13.89,22.37,0,10.85,3.54,16.45A11.29,11.29,0,0,0,379.12,271.55Z"/><path class="cls-2" d="M458.71,279.33h-10.5L425.45,241l-1.72-2.86c-.35-.59-.89-1.51-1.62-2.77v43.95h-8.7v-60h11.95l21,35.33c.17.3,1.45,2.45,3.82,6.46V219.34h8.52Z"/></svg>
