<svg id="Layer_1" data-name="Layer 1" xmlns="http://www.w3.org/2000/svg" viewBox="0 0 2560 1440"><defs><style>.cls-1{fill:#3e4159;}.cls-2{fill:#14151e;}.cls-3{fill:#252735;}</style></defs><title>forside_uden_baggrund</title><polygon class="cls-1" points="1693.51 633.81 1799.72 282.7 948.96 25.36 597.86 -80.85 491.65 270.26 396.07 586.25 289.86 937.36 194.27 1253.35 88.07 1604.45 439.17 1710.66 1289.92 1968.01 1396.13 1616.9 545.38 1359.56 640.96 1043.56 1243.24 1225.75 1349.45 874.64 747.17 692.46 842.76 376.46 1693.51 633.81"/><polygon class="cls-2" points="1605.44 469.36 1711.65 118.25 860.89 -139.09 509.79 -245.3 403.58 105.8 308 421.8 201.79 772.9 106.21 1088.9 0 1440 351.1 1546.21 1201.86 1803.55 1308.06 1452.45 457.31 1195.1 552.9 879.11 1155.18 1061.29 1261.38 710.19 659.1 528 754.69 212.01 1605.44 469.36"/><polygon class="cls-1" points="1799.72 282.7 1711.65 118.25 1673.45 244.51 1799.72 282.7"/><polygon class="cls-1" points="1349.45 874.64 1261.38 710.19 1223.19 836.45 1349.45 874.64"/><polygon class="cls-1" points="88.07 1604.45 0 1440 126.26 1478.19 88.07 1604.45"/><polygon class="cls-3" points="1693.51 633.81 1605.44 469.36 754.69 212.01 842.76 376.46 1693.51 633.81"/><polygon class="cls-3" points="1243.24 1225.75 1155.18 1061.29 552.9 879.11 640.96 1043.56 1243.24 1225.75"/></svg>
