<svg id="Layer_1" data-name="Layer 1" xmlns="http://www.w3.org/2000/svg" viewBox="0 0 2560 1440"><defs><style>.cls-1{fill:#3e4159;}.cls-2{fill:#14151e;}.cls-3{fill:#252735;}</style></defs><title>forside5</title><polygon class="cls-1" points="1101.81 868.04 1170.91 1096.47 617.4 1263.91 388.97 1333.01 319.87 1104.57 257.69 898.98 188.59 670.55 126.4 464.96 57.3 236.53 285.73 167.43 839.24 0 908.34 228.43 354.83 395.86 417.02 601.45 808.87 482.92 877.97 711.35 486.12 829.88 548.31 1035.47 1101.81 868.04"/><polygon class="cls-2" points="1044.52 975.04 1113.62 1203.47 560.11 1370.9 331.68 1440 262.58 1211.57 200.39 1005.98 131.29 777.55 69.1 571.96 0 343.53 228.43 274.43 781.94 107 851.04 335.43 297.53 502.86 359.72 708.45 751.57 589.92 820.67 818.35 428.82 936.88 491.01 1142.47 1044.52 975.04"/><polygon class="cls-1" points="1170.91 1096.47 1113.62 1203.47 1088.77 1121.32 1170.91 1096.47"/><polygon class="cls-1" points="877.97 711.35 820.67 818.35 795.82 736.2 877.97 711.35"/><polygon class="cls-1" points="908.32 228.36 851.02 335.35 826.17 253.21 908.32 228.36"/><polygon class="cls-1" points="57.3 236.53 0 343.53 82.15 318.68 57.3 236.53"/><polygon class="cls-3" points="1101.81 868.04 1044.52 975.04 491.01 1142.47 548.31 1035.47 1101.81 868.04"/><polygon class="cls-3" points="839.24 0 781.94 107 0 343.53 57.3 236.53 839.24 0"/><polygon class="cls-3" points="808.87 482.92 751.57 589.92 359.72 708.45 417.02 601.45 808.87 482.92"/><polygon class="cls-1" points="1458.19 868.04 1389.09 1096.47 1942.6 1263.91 2171.03 1333.01 2240.13 1104.57 2302.32 898.98 2371.41 670.55 2433.6 464.96 2502.7 236.53 2274.27 167.43 1720.76 0 1651.66 228.43 2205.17 395.86 2142.98 601.45 1751.13 482.92 1682.03 711.35 2073.88 829.88 2011.69 1035.47 1458.19 868.04"/><polygon class="cls-2" points="1515.48 975.04 1446.38 1203.47 1999.89 1370.9 2228.32 1440 2297.42 1211.57 2359.61 1005.98 2428.71 777.55 2490.9 571.96 2560 343.53 2331.57 274.43 1778.06 107 1708.96 335.43 2262.47 502.86 2200.28 708.45 1808.43 589.92 1739.33 818.35 2131.18 936.88 2068.99 1142.47 1515.48 975.04"/><polygon class="cls-1" points="1389.09 1096.47 1446.38 1203.47 1471.23 1121.32 1389.09 1096.47"/><polygon class="cls-1" points="1682.03 711.35 1739.33 818.35 1764.18 736.2 1682.03 711.35"/><polygon class="cls-1" points="1651.68 228.36 1708.98 335.35 1733.83 253.21 1651.68 228.36"/><polygon class="cls-1" points="2502.7 236.53 2560 343.53 2477.85 318.68 2502.7 236.53"/><polygon class="cls-3" points="1458.19 868.04 1515.48 975.04 2068.99 1142.47 2011.69 1035.47 1458.19 868.04"/><polygon class="cls-3" points="1720.76 0 1778.06 107 2560 343.53 2502.7 236.53 1720.76 0"/><polygon class="cls-3" points="1751.13 482.92 1808.43 589.92 2200.28 708.45 2142.98 601.45 1751.13 482.92"/></svg>
