<svg id="Layer_1" data-name="Layer 1" xmlns="http://www.w3.org/2000/svg" viewBox="0 0 500 500"><defs><style>.cls-1{fill:#252735;}.cls-2{fill:#4b5072;}</style></defs><title>hover_html</title><rect class="cls-1" width="500" height="500"/><path class="cls-2" d="M86.48,260.29l7-1.5q1.26,6,9.67,5.95a9.85,9.85,0,0,0,5.9-1.52,4.56,4.56,0,0,0,2.07-3.78,5.32,5.32,0,0,0-.94-3c-.63-.93-2-1.66-4-2.19l-7.65-2a18.7,18.7,0,0,1-5.8-2.33,9.16,9.16,0,0,1-3-3.68,11.66,11.66,0,0,1-1.12-5.06,10.53,10.53,0,0,1,4-8.6,15.66,15.66,0,0,1,10.2-3.24,18.57,18.57,0,0,1,9.21,2.26,10.13,10.13,0,0,1,5.17,6.38l-6.85,1.7q-1.59-4.54-7.39-4.54a8.11,8.11,0,0,0-5.14,1.41A4.36,4.36,0,0,0,96,240.1c0,2.29,1.85,3.89,5.57,4.81l6.79,1.7q6.18,1.54,8.29,4.58a11.43,11.43,0,0,1,2.11,6.69,11,11,0,0,1-4.44,9.28c-2.95,2.25-6.79,3.38-11.49,3.38a21.05,21.05,0,0,1-10.42-2.49A12.19,12.19,0,0,1,86.48,260.29Z"/><path class="cls-2" d="M138.92,269.93h-7.74V236.12H120.55v-6.18h29v6.18H138.92Z"/><path class="cls-2" d="M161.16,269.93H154v-40h7.21Z"/><path class="cls-2" d="M194.55,269.93H169.94v-40h7.59v33.45h17Z"/><path class="cls-2" d="M231.23,269.93h-7.7l-3.2-9.53H205l-3.13,9.53h-6.15l13.27-40h8.88Zm-12.83-15.3-5.83-17.84-5.83,17.84Z"/><path class="cls-2" d="M267.21,269.93h-7.62l-6.21-16.44H243.25v16.44H236v-40h17.34q7.25,0,10.64,3.26a11.23,11.23,0,0,1,3.4,8.45q0,7.71-7.21,10.61Zm-24-22.21h9q3.9,0,5.8-1.64a5.65,5.65,0,0,0,1.91-4.51A5.4,5.4,0,0,0,258,237.3a7.77,7.77,0,0,0-5.24-1.62h-9.55Z"/><path class="cls-2" d="M288.57,269.93h-7.74V236.12H270.2v-6.18h29v6.18H288.57Z"/><path class="cls-2" d="M299.88,260.29l7-1.5q1.26,6,9.67,5.95a9.87,9.87,0,0,0,5.9-1.52,4.55,4.55,0,0,0,2.06-3.78,5.31,5.31,0,0,0-.93-3q-.94-1.4-4-2.19l-7.64-2a18.7,18.7,0,0,1-5.8-2.33,9.16,9.16,0,0,1-3-3.68,11.66,11.66,0,0,1-1.12-5.06,10.51,10.51,0,0,1,4-8.6,15.64,15.64,0,0,1,10.2-3.24,18.59,18.59,0,0,1,9.21,2.26,10.16,10.16,0,0,1,5.17,6.38l-6.86,1.7q-1.57-4.54-7.38-4.54a8.11,8.11,0,0,0-5.14,1.41,4.36,4.36,0,0,0-1.77,3.57q0,3.43,5.56,4.81l6.8,1.7q6.18,1.54,8.29,4.58a11.43,11.43,0,0,1,2.11,6.69,11,11,0,0,1-4.44,9.28q-4.44,3.38-11.5,3.38a21,21,0,0,1-10.41-2.49A12.19,12.19,0,0,1,299.88,260.29Z"/><path class="cls-2" d="M345.55,269.93h-7.21v-40h7.21Z"/><path class="cls-2" d="M368.31,269.93h-7.73V236.12H349.94v-6.18h29v6.18H368.31Z"/><path class="cls-2" d="M409.33,269.93h-26v-40h25.73v5.94H390.55v10.84h14.88v5.8H390.55v11.19h18.78Z"/></svg>
