<svg id="Layer_1" data-name="Layer 1" xmlns="http://www.w3.org/2000/svg" viewBox="0 0 500 500"><defs><style>.cls-1{fill:#252735;}.cls-2{fill:#4b5072;}</style></defs><title>hover_ux</title><rect class="cls-1" width="500" height="500"/><path class="cls-2" d="M171.69,161.06h-8.06l-8.43-20.37L147.46,151v10.11h-7.21v-40h7.21v21c.92-1.42,1.58-2.41,2-3l13.27-18H170l-9.49,13.15Z"/><path class="cls-2" d="M203.07,161.06h-26v-40H202.8V127H184.29v10.84h14.88v5.8H184.29v11.19h18.78Z"/><path class="cls-2" d="M240.65,161.06H233l-3.19-9.53H214.38l-3.14,9.53h-6.15l13.27-40h8.88Zm-12.83-15.3L222,127.92l-5.83,17.84Z"/><path class="cls-2" d="M291.84,161.06h-7.71l-3.19-9.53H265.56l-3.14,9.53h-6.15l13.27-40h8.88ZM279,145.76l-5.83-17.84-5.83,17.84Z"/><path class="cls-2" d="M303.85,161.06h-7.21v-40H313q7,0,10.38,3.53a12.27,12.27,0,0,1-.27,17.21,13.17,13.17,0,0,1-9.29,3.4h-10Zm0-22h8.52a7.17,7.17,0,0,0,5.1-1.64,5.69,5.69,0,0,0,1.76-4.36,6,6,0,0,0-1.63-4.22Q316,127,311.73,127h-7.88Z"/><path class="cls-2" d="M339.79,161.06h-7.2v-40H349q7,0,10.39,3.53a12.28,12.28,0,0,1-.28,17.21,13.12,13.12,0,0,1-9.28,3.4h-10Zm0-22h8.53a7.17,7.17,0,0,0,5.1-1.64,5.69,5.69,0,0,0,1.76-4.36,6,6,0,0,0-1.63-4.22q-1.62-1.76-5.87-1.76h-7.89Z"/><path class="cls-2" d="M100.78,305.06H93.16L87,288.62H76.81v16.44H69.6v-40H87q7.23,0,10.63,3.26a11.2,11.2,0,0,1,3.4,8.45q0,7.71-7.21,10.61Zm-24-22.21h9c2.59,0,4.53-.55,5.8-1.64a5.65,5.65,0,0,0,1.9-4.51,5.39,5.39,0,0,0-1.87-4.27,7.78,7.78,0,0,0-5.25-1.62H76.81Z"/><path class="cls-2" d="M134.15,305.06h-26v-40h25.72V271H115.37v10.84h14.88v5.8H115.37v11.19h18.78Z"/><path class="cls-2" d="M147.56,305.06h-7.2v-40h16.37q7,0,10.39,3.53a12.28,12.28,0,0,1-.28,17.21,13.15,13.15,0,0,1-9.29,3.4h-10Zm0-22h8.53a7.19,7.19,0,0,0,5.1-1.64,5.68,5.68,0,0,0,1.75-4.36,6,6,0,0,0-1.62-4.22c-1.09-1.17-3-1.76-5.88-1.76h-7.88Z"/><path class="cls-2" d="M203.75,265.07v25.69a21.68,21.68,0,0,1-1.17,8,10.55,10.55,0,0,1-4.52,4.84,15.5,15.5,0,0,1-8.19,2,16.39,16.39,0,0,1-8-1.76,10.29,10.29,0,0,1-4.53-4.82,19.05,19.05,0,0,1-1.38-7.8V265.07h7.36v25.69c0,3.51.73,5.82,2.21,6.93a8.36,8.36,0,0,0,5.14,1.65,7.89,7.89,0,0,0,5.39-1.77q2-1.77,2-6.81V265.07Z"/><path class="cls-2" d="M212,305.06v-40h15.58a22.16,22.16,0,0,1,6.57.82,8.92,8.92,0,0,1,4.51,3.42,10.11,10.11,0,0,1,1.9,6.13,9,9,0,0,1-1.93,5.75,8.71,8.71,0,0,1-5.33,3.12,10,10,0,0,1,6.38,3.43,9.87,9.87,0,0,1,2.17,6.39,10.8,10.8,0,0,1-3,7.78q-3,3.15-9.33,3.15Zm6.82-23.21h8.79a5.45,5.45,0,0,0,5.83-5.71,4.69,4.69,0,0,0-1.78-4.06,6.93,6.93,0,0,0-4.19-1.3h-8.65Zm0,17.2h9.32a6.72,6.72,0,0,0,4.67-1.55,5.85,5.85,0,0,0,0-8.32,6.49,6.49,0,0,0-4.61-1.61h-9.35Z"/><path class="cls-2" d="M273,305.06H248.43v-40H256v33.45h17Z"/><path class="cls-2" d="M285.55,305.06h-7.21v-40h7.21Z"/><path class="cls-2" d="M325.78,305.06h-8.06l-8.44-20.37L301.55,295v10.11h-7.21v-40h7.21v21c.92-1.42,1.58-2.41,2-3l13.27-18h7.3l-9.5,13.15Z"/><path class="cls-2" d="M362.6,305.06h-8.05l-8.44-20.37L338.37,295v10.11h-7.2v-40h7.2v21c.92-1.42,1.59-2.41,2-3l13.27-18h7.29l-9.49,13.15Z"/><path class="cls-2" d="M394,305.06H368v-40h25.73V271H375.2v10.84h14.88v5.8H375.2v11.19H394Z"/><path class="cls-2" d="M430.4,305.06h-7l-15.17-25.55-1.14-1.91c-.24-.39-.6-1-1.09-1.84v29.3h-5.8v-40h8l14,23.55,2.55,4.31V265.07h5.69Z"/><path class="cls-2" d="M231.73,377.06H224l-3.2-9.53H205.45l-3.13,9.53h-6.15l13.27-40h8.88Zm-12.83-15.3-5.83-17.84-5.83,17.84Z"/><path class="cls-2" d="M243.75,377.06h-7.21v-40h16.38q7,0,10.38,3.53a12.28,12.28,0,0,1-.28,17.21,13.12,13.12,0,0,1-9.28,3.4h-10Zm0-22h8.52a7.17,7.17,0,0,0,5.1-1.64,5.69,5.69,0,0,0,1.76-4.36,6,6,0,0,0-1.63-4.22q-1.62-1.76-5.87-1.76h-7.88Z"/><path class="cls-2" d="M279.69,377.06h-7.2v-40h16.37q7,0,10.39,3.53a12.28,12.28,0,0,1-.28,17.21,13.15,13.15,0,0,1-9.29,3.4h-10Zm0-22h8.53a7.21,7.21,0,0,0,5.1-1.64,5.68,5.68,0,0,0,1.75-4.36,6,6,0,0,0-1.62-4.22c-1.09-1.17-3-1.76-5.88-1.76h-7.88Z"/></svg>
