<svg id="Layer_1" data-name="Layer 1" xmlns="http://www.w3.org/2000/svg" viewBox="0 0 500 500"><defs><style>.cls-1{fill:#252735;}.cls-2{fill:#4b5072;}</style></defs><title>hover_animation</title><rect class="cls-1" width="500" height="500"/><path class="cls-2" d="M209.92,161.14h-26v-40h25.72v5.95H191.14v10.84H206v5.8H191.14v11.19h18.78Z"/><path class="cls-2" d="M246.49,140.69v20.45h-3.2l-2.19-5.39q-3.49,6-10.81,6-8.17,0-12.21-6.21a25.9,25.9,0,0,1-4-14.39,23.65,23.65,0,0,1,4.5-14.63q4.5-6,12.58-6a14.28,14.28,0,0,1,9.94,3.5,15.47,15.47,0,0,1,4.92,8.71l-6.27,1.12q-1.75-7.34-8.41-7.33a8.37,8.37,0,0,0-6.93,3.46q-2.67,3.45-2.68,10.63,0,15.15,9.49,15.15a8.06,8.06,0,0,0,6.11-2.55,9.39,9.39,0,0,0,2.42-6.74h-8.26v-5.8Z"/><path class="cls-2" d="M280.65,161.14h-26v-40h25.72v5.95H261.87v10.84h14.88v5.8H261.87v11.19h18.78Z"/><path class="cls-2" d="M317.06,161.14h-7l-15.18-25.55-1.14-1.9-1.08-1.85v29.3h-5.8v-40h8l14,23.56c.12.19,1,1.63,2.55,4.3V121.15h5.68Z"/><path class="cls-2" d="M138.89,233.14h-7.7L128,223.62H112.62l-3.14,9.52h-6.15l13.27-40h8.88Zm-12.83-15.29L120.23,200l-5.83,17.84Z"/><path class="cls-2" d="M173.9,233.14h-7l-15.17-25.55-1.15-1.9-1.08-1.85v29.3h-5.8v-40h8l14,23.56c.12.19,1,1.63,2.55,4.3V193.15h5.68Z"/><path class="cls-2" d="M189.9,233.14h-7.21v-40h7.21Z"/><path class="cls-2" d="M237.92,233.14h-7.36v-35l-11.07,35h-3.78l-11.13-35v35h-5.89v-40H210l8.38,25.75,8.23-25.75h11.34Z"/><path class="cls-2" d="M278.11,233.14h-7.7l-3.2-9.52H251.83l-3.13,9.52h-6.15l13.27-40h8.88Zm-12.83-15.29L259.45,200l-5.83,17.84Z"/><path class="cls-2" d="M293.64,233.14h-7.73V199.33H275.27v-6.18h29v6.18H293.64Z"/><path class="cls-2" d="M315.88,233.14h-7.21v-40h7.21Z"/><path class="cls-2" d="M339.4,233.76a14.59,14.59,0,0,1-12.41-6q-4.42-6-4.43-14.77t4.71-14.6a15.18,15.18,0,0,1,12.45-5.87A14.69,14.69,0,0,1,352,198.41q4.53,5.88,4.53,14.69,0,9.26-4.7,15A15.36,15.36,0,0,1,339.4,233.76Zm.06-5.8a8.29,8.29,0,0,0,6.59-3.23q2.7-3.22,2.7-11.69,0-6.89-2.23-10.79a7.4,7.4,0,0,0-6.91-3.91q-9.25,0-9.26,14.91,0,7.23,2.36,11A7.53,7.53,0,0,0,339.46,228Z"/><path class="cls-2" d="M393.48,233.14h-7l-15.17-25.55-1.15-1.9-1.08-1.85v29.3h-5.8v-40h8l14,23.56c.12.19,1,1.63,2.55,4.3V193.15h5.68Z"/><path class="cls-2" d="M160,363.25l6.68.74a15.68,15.68,0,0,1-4.64,9.89,14.49,14.49,0,0,1-10.51,3.88,13.71,13.71,0,0,1-8.89-2.76,17.55,17.55,0,0,1-5.26-7.47,28.3,28.3,0,0,1-1.84-10.4q0-9.13,4.33-14.87a15.27,15.27,0,0,1,21.83-2.06q4,3.66,5,10.49l-6.68.7q-1.84-9.06-8.14-9.05a7,7,0,0,0-6.29,3.76q-2.23,3.76-2.24,10.91t2.4,11a7.29,7.29,0,0,0,6.36,3.7,7,7,0,0,0,5.39-2.49A9.87,9.87,0,0,0,160,363.25Z"/><path class="cls-2" d="M179.63,377.14h-7.21v-40H188.8q7,0,10.39,3.53a11.68,11.68,0,0,1,3.38,8.34,11.53,11.53,0,0,1-3.66,8.87,13.1,13.1,0,0,1-9.29,3.4h-10Zm0-22h8.53a7.21,7.21,0,0,0,5.09-1.64A5.66,5.66,0,0,0,195,349.1a6,6,0,0,0-1.62-4.21c-1.09-1.18-3-1.76-5.88-1.76h-7.88Z"/><path class="cls-2" d="M238.05,377.14h-7.21V359.77H215.58v17.37h-7.21v-40h7.21v16.44h15.26V337.15h7.21Z"/><path class="cls-2" d="M261.63,377.14v-40h14.74a16.4,16.4,0,0,1,13.12,5.79,21.2,21.2,0,0,1,5,14.28,20.56,20.56,0,0,1-5.1,14.21q-5.1,5.71-14.59,5.71Zm7.41-5.89h6a10.76,10.76,0,0,0,8.2-3.63q3.38-3.63,3.37-10.81a16.46,16.46,0,0,0-2.94-9.92,9.18,9.18,0,0,0-7.78-4.06H269Z"/><path class="cls-2" d="M315.86,377.76q-8,0-12.4-6T299,357q0-8.73,4.71-14.6a15.18,15.18,0,0,1,12.45-5.87,14.69,14.69,0,0,1,12.32,5.87Q333,348.29,333,357.1q0,9.25-4.7,15A15.36,15.36,0,0,1,315.86,377.76Zm.06-5.8a8.29,8.29,0,0,0,6.59-3.23q2.7-3.23,2.7-11.69,0-6.89-2.23-10.79a7.4,7.4,0,0,0-6.91-3.91q-9.27,0-9.26,14.91,0,7.23,2.36,11A7.53,7.53,0,0,0,315.92,372Z"/><path class="cls-2" d="M367.39,377.14H359l-8.85-15.76-9.38,15.76h-6.71l12.66-20.83-10.87-19.16h8.38l7.38,13.3,7.83-13.3h6.73L355,355.4Z"/></svg>
