<svg id="Layer_1" data-name="Layer 1" xmlns="http://www.w3.org/2000/svg" viewBox="0 0 500 500"><defs><style>.cls-1{fill:#252735;}.cls-2{fill:#4b5072;}</style></defs><title>hover_video</title><rect class="cls-1" width="500" height="500"/><path class="cls-2" d="M141.53,160.74h-7.71l-3.19-9.52H115.25l-3.14,9.52H106l13.27-40h8.88ZM128.7,145.45l-5.83-17.84L117,145.45Z"/><path class="cls-2" d="M157.05,160.74h-7.73V126.93H138.69v-6.18h29v6.18H157.05Z"/><path class="cls-2" d="M196.69,160.74H172.08v-40h7.59v33.46h17Z"/><path class="cls-2" d="M233.37,160.74h-7.7l-3.2-9.52H207.09L204,160.74h-6.15l13.27-40H220Zm-12.83-15.29-5.83-17.84-5.83,17.84Z"/><path class="cls-2" d="M234,151.1l7-1.49q1.26,5.94,9.67,5.95a9.76,9.76,0,0,0,5.9-1.53,4.53,4.53,0,0,0,2.07-3.78,5.37,5.37,0,0,0-.94-3c-.63-.93-2-1.65-4-2.18l-7.65-2a19,19,0,0,1-5.8-2.33,9.13,9.13,0,0,1-3-3.68A11.54,11.54,0,0,1,236.1,132a10.55,10.55,0,0,1,4-8.6,15.71,15.71,0,0,1,10.2-3.23,18.67,18.67,0,0,1,9.21,2.25,10.17,10.17,0,0,1,5.17,6.39l-6.85,1.7q-1.59-4.54-7.39-4.54a8.17,8.17,0,0,0-5.14,1.4,4.38,4.38,0,0,0-1.77,3.58q0,3.42,5.57,4.8l6.79,1.7q6.18,1.56,8.29,4.59a11.43,11.43,0,0,1,2.11,6.69,11,11,0,0,1-4.43,9.27q-4.44,3.39-11.5,3.39a21.05,21.05,0,0,1-10.42-2.49A12.19,12.19,0,0,1,234,151.1Z"/><path class="cls-2" d="M287.46,160.74v-40H303a22.38,22.38,0,0,1,6.56.82,8.92,8.92,0,0,1,4.52,3.43,10.16,10.16,0,0,1,1.9,6.12,9,9,0,0,1-1.93,5.76,8.7,8.7,0,0,1-5.34,3.12,10,10,0,0,1,6.39,3.43,9.84,9.84,0,0,1,2.17,6.38,10.78,10.78,0,0,1-3,7.78c-2,2.1-5.14,3.15-9.33,3.15Zm6.82-23.2h8.79a5.46,5.46,0,0,0,5.83-5.71,4.69,4.69,0,0,0-1.79-4.06,6.9,6.9,0,0,0-4.19-1.31h-8.64Zm0,17.2h9.32a6.67,6.67,0,0,0,4.67-1.56,5.88,5.88,0,0,0,0-8.32,6.54,6.54,0,0,0-4.61-1.61h-9.35Z"/><path class="cls-2" d="M355.28,160.74h-7.71l-3.19-9.52H329l-3.14,9.52h-6.15l13.27-40h8.88Zm-12.83-15.29-5.83-17.84-5.83,17.84Z"/><path class="cls-2" d="M391.25,160.74h-7.61l-6.21-16.43H367.29v16.43h-7.21v-40h17.35q7.23,0,10.63,3.27a11.18,11.18,0,0,1,3.4,8.45q0,7.71-7.21,10.61Zm-24-22.2h9c2.6,0,4.54-.55,5.8-1.65a5.63,5.63,0,0,0,1.91-4.51,5.37,5.37,0,0,0-1.88-4.26,7.75,7.75,0,0,0-5.24-1.63h-9.55Z"/><path class="cls-2" d="M153.91,295.1l7-1.49q1.26,5.94,9.67,5.95a9.8,9.8,0,0,0,5.9-1.53,4.52,4.52,0,0,0,2.06-3.78,5.35,5.35,0,0,0-.93-3c-.63-.93-2-1.65-4-2.18l-7.64-2a19,19,0,0,1-5.8-2.33,9.15,9.15,0,0,1-3-3.68A11.67,11.67,0,0,1,156,276a10.52,10.52,0,0,1,4-8.6,15.69,15.69,0,0,1,10.2-3.23,18.7,18.7,0,0,1,9.21,2.25,10.2,10.2,0,0,1,5.17,6.39l-6.86,1.7q-1.58-4.55-7.38-4.54a8.17,8.17,0,0,0-5.14,1.4,4.38,4.38,0,0,0-1.77,3.58q0,3.42,5.56,4.8l6.8,1.7Q182,283,184.08,286a11.43,11.43,0,0,1,2.11,6.69,11,11,0,0,1-4.44,9.27q-4.44,3.39-11.5,3.39a21,21,0,0,1-10.41-2.49A12.19,12.19,0,0,1,153.91,295.1Z"/><path class="cls-2" d="M218.36,304.74h-26v-40H218.1v5.95H199.58v10.84h14.88v5.8H199.58v11.19h18.78Z"/><path class="cls-2" d="M253.84,304.74h-8.41L236.58,289l-9.37,15.76H220.5l12.65-20.83-10.86-19.16h8.37l7.39,13.3,7.82-13.3h6.74L241.47,283Z"/><path class="cls-2" d="M288.29,305.36q-8,0-12.41-6t-4.43-14.76q0-8.75,4.71-14.61a15.18,15.18,0,0,1,12.45-5.87A14.7,14.7,0,0,1,300.93,270q4.53,5.88,4.53,14.69,0,9.27-4.7,15A15.36,15.36,0,0,1,288.29,305.36Zm.06-5.8a8.29,8.29,0,0,0,6.59-3.23q2.7-3.21,2.7-11.69,0-6.88-2.23-10.79a7.4,7.4,0,0,0-6.91-3.91q-9.27,0-9.26,14.91,0,7.23,2.36,11A7.53,7.53,0,0,0,288.35,299.56Z"/><path class="cls-2" d="M342.52,284.29v20.45h-3.19l-2.2-5.39q-3.5,6-10.81,6-8.18,0-12.2-6.21a25.82,25.82,0,0,1-4-14.39,23.71,23.71,0,0,1,4.49-14.63q4.5-6,12.59-6a14.28,14.28,0,0,1,9.93,3.5,15.36,15.36,0,0,1,4.92,8.71l-6.27,1.12q-1.75-7.34-8.41-7.33a8.37,8.37,0,0,0-6.93,3.46q-2.67,3.45-2.68,10.63,0,15.15,9.5,15.15a8,8,0,0,0,6.1-2.55,9.35,9.35,0,0,0,2.42-6.74h-8.26v-5.8Z"/><path class="cls-2" d="M118.85,367.1l7-1.49q1.26,5.94,9.67,5.95a9.81,9.81,0,0,0,5.91-1.53,4.55,4.55,0,0,0,2.06-3.78,5.29,5.29,0,0,0-.94-3c-.62-.93-2-1.65-4-2.18l-7.65-2a19.06,19.06,0,0,1-5.8-2.33,9.13,9.13,0,0,1-3-3.68A11.68,11.68,0,0,1,121,348a10.53,10.53,0,0,1,4-8.6,15.61,15.61,0,0,1,10.19-3.23,18.71,18.71,0,0,1,9.22,2.25,10.21,10.21,0,0,1,5.17,6.39l-6.86,1.7c-1-3-3.52-4.54-7.38-4.54a8.15,8.15,0,0,0-5.14,1.4,4.36,4.36,0,0,0-1.78,3.58q0,3.42,5.57,4.8l6.8,1.7c4.12,1,6.88,2.56,8.29,4.59a11.5,11.5,0,0,1,2.11,6.69A11,11,0,0,1,146.7,374q-4.44,3.39-11.5,3.39a21,21,0,0,1-10.41-2.49A12.23,12.23,0,0,1,118.85,367.1Z"/><path class="cls-2" d="M188.46,376.74h-7.7l-3.2-9.52H162.18l-3.13,9.52h-6.16l13.28-40H175Zm-12.83-15.29-5.83-17.84L164,361.45Z"/><path class="cls-2" d="M232.49,376.74h-7.35v-35l-11.07,35h-3.78l-11.14-35v35h-5.88v-40h11.27l8.38,25.75,8.24-25.75h11.33Z"/><path class="cls-2" d="M248.72,376.74h-7.41v-40H266.6v6.18H248.72v10.93h14.07v6H248.72Z"/><path class="cls-2" d="M299.23,336.75v25.69a21.65,21.65,0,0,1-1.17,8,10.57,10.57,0,0,1-4.52,4.85,15.5,15.5,0,0,1-8.19,2,16.41,16.41,0,0,1-8.05-1.76,10.32,10.32,0,0,1-4.52-4.82A19.07,19.07,0,0,1,271.4,363V336.75h7.35v25.69q0,5.28,2.22,6.93a8.28,8.28,0,0,0,5.14,1.66,7.9,7.9,0,0,0,5.39-1.77q2-1.78,2-6.82V336.75Z"/><path class="cls-2" d="M337.67,376.74h-7l-15.18-25.55-1.14-1.9c-.23-.39-.6-1-1.08-1.85v29.3h-5.81v-40h8l14,23.56c.11.19,1,1.63,2.55,4.3V336.75h5.68Z"/><path class="cls-2" d="M346.25,376.74v-40H361a16.43,16.43,0,0,1,13.13,5.79,21.2,21.2,0,0,1,4.95,14.28A20.56,20.56,0,0,1,374,371q-5.1,5.72-14.59,5.71Zm7.42-5.89h6a10.8,10.8,0,0,0,8.21-3.63q3.36-3.63,3.36-10.81a16.46,16.46,0,0,0-2.94-9.92,9.18,9.18,0,0,0-7.78-4.06h-6.85Z"/></svg>
