<svg id="Layer_1" data-name="Layer 1" xmlns="http://www.w3.org/2000/svg" viewBox="0 0 500 500"><defs><style>.cls-1{fill:#060b17;}.cls-2{fill:#4b5072;}</style></defs><title>ux_menu</title><rect class="cls-1" width="500" height="500"/><path class="cls-2" d="M243.65,219.84v38.54q0,7.83-1.76,12.05a15.89,15.89,0,0,1-6.79,7.27,23.23,23.23,0,0,1-12.28,3.05q-7.35,0-12.07-2.63a15.44,15.44,0,0,1-6.79-7.23,28.81,28.81,0,0,1-2.06-11.71V219.84h11v38.54q0,7.92,3.32,10.4a12.54,12.54,0,0,0,7.71,2.48A11.77,11.77,0,0,0,232,268.6q3-2.66,3-10.22V219.84Z"/><path class="cls-2" d="M299.9,279.83H287.28L274,256.19,260,279.83H249.89l19-31.25-16.3-28.74h12.57l11.07,20,11.73-20h10.11l-16.7,27.38Z"/></svg>
